<?xml version="1.0" encoding="utf-8"?>
<svg viewBox="0 0 500 500" xmlns="http://www.w3.org/2000/svg" xmlns:bx="https://boxy-svg.com">
  <defs>
    <bx:grid x="0" y="0" width="8" height="8"/>
  </defs>
  <g transform="matrix(1, 0, 0, 1, 1.09444, -47.999996)">
    <title>Title</title>
    <path d="M 128.485 143.889 L 125.715 143.889 L 120.645 121.209 L 123.615 121.209 L 127.205 137.929 L 130.615 121.209 L 133.505 121.209 L 128.485 143.889 ZM 141.265 144.139 C 139.618 144.139 138.358 143.812 137.485 143.159 C 136.605 142.506 136.005 141.586 135.685 140.399 C 135.371 139.219 135.215 137.836 135.215 136.249 L 135.215 121.209 L 138.235 121.209 L 138.235 136.389 C 138.235 137.356 138.301 138.242 138.435 139.049 C 138.561 139.849 138.845 140.482 139.285 140.949 C 139.725 141.416 140.385 141.649 141.265 141.649 C 142.158 141.649 142.818 141.416 143.245 140.949 C 143.678 140.482 143.958 139.849 144.085 139.049 C 144.218 138.242 144.285 137.356 144.285 136.389 L 144.285 121.209 L 147.285 121.209 L 147.285 136.249 C 147.285 137.836 147.125 139.219 146.805 140.399 C 146.485 141.586 145.891 142.506 145.025 143.159 C 144.158 143.812 142.905 144.139 141.265 144.139 ZM 158.958 143.889 L 150.108 143.889 L 150.108 121.209 L 158.908 121.209 L 158.908 123.559 L 153.278 123.559 L 153.278 131.069 L 157.838 131.069 L 157.838 133.309 L 153.278 133.309 L 153.278 141.619 L 158.958 141.619 L 158.958 143.889 Z" transform="matrix(5.219033241271973, 0, 0, 5.0971832275390625, -587.2839965820312, -490.99981689453125)" style="fill: rgb(51, 51, 51); white-space: pre;"/>
    <path d="M 180.063 223.668 L 176.893 223.668 L 176.893 200.988 L 185.663 200.988 L 185.663 203.258 L 180.063 203.258 L 180.063 210.818 L 184.403 210.818 L 184.403 213.058 L 180.063 213.058 L 180.063 223.668 ZM 196.801 223.668 L 187.841 223.668 L 187.841 200.988 L 191.011 200.988 L 191.011 221.398 L 196.801 221.398 L 196.801 223.668 ZM 207.806 223.668 L 198.956 223.668 L 198.956 200.988 L 207.756 200.988 L 207.756 203.338 L 202.126 203.338 L 202.126 210.848 L 206.686 210.848 L 206.686 213.088 L 202.126 213.088 L 202.126 221.398 L 207.806 221.398 L 207.806 223.668 ZM 211.892 223.668 L 208.952 223.668 L 213.692 211.798 L 209.042 200.988 L 211.982 200.988 L 215.422 208.998 L 218.562 200.988 L 221.502 200.988 L 216.742 212.048 L 221.722 223.668 L 218.782 223.668 L 215.092 215.128 L 211.892 223.668 ZM 229.898 223.668 L 223.848 223.668 L 223.848 200.988 L 229.058 200.988 C 230.084 200.988 230.978 201.101 231.738 201.328 C 232.491 201.548 233.121 201.891 233.628 202.358 C 234.128 202.825 234.501 203.418 234.748 204.138 C 234.988 204.858 235.108 205.701 235.108 206.668 C 235.108 207.601 234.991 208.411 234.758 209.098 C 234.524 209.778 234.171 210.315 233.698 210.708 C 233.218 211.095 232.604 211.345 231.858 211.458 C 232.771 211.665 233.508 212.015 234.068 212.508 C 234.628 213.001 235.044 213.638 235.318 214.418 C 235.591 215.191 235.728 216.118 235.728 217.198 C 235.728 218.171 235.614 219.058 235.388 219.858 C 235.161 220.665 234.811 221.348 234.338 221.908 C 233.864 222.468 233.258 222.901 232.518 223.208 C 231.778 223.515 230.904 223.668 229.898 223.668 Z M 227.018 212.858 L 227.018 221.398 L 229.148 221.398 C 230.561 221.398 231.508 221.068 231.988 220.408 C 232.461 219.741 232.698 218.671 232.698 217.198 C 232.698 216.245 232.571 215.448 232.318 214.808 C 232.071 214.161 231.671 213.675 231.118 213.348 C 230.564 213.021 229.821 212.858 228.888 212.858 L 227.018 212.858 Z M 227.018 203.338 L 227.018 210.448 L 228.888 210.448 C 229.788 210.448 230.488 210.325 230.988 210.078 C 231.494 209.825 231.851 209.418 232.058 208.858 C 232.264 208.298 232.368 207.568 232.368 206.668 C 232.368 205.628 232.208 204.875 231.888 204.408 C 231.568 203.941 231.074 203.645 230.408 203.518 C 229.734 203.398 228.854 203.338 227.768 203.338 L 227.018 203.338 ZM 244.319 223.918 C 242.786 223.918 241.563 223.621 240.649 223.028 C 239.736 222.428 239.083 221.571 238.689 220.458 C 238.296 219.351 238.099 218.051 238.099 216.558 L 238.099 207.958 C 238.099 206.465 238.303 205.181 238.709 204.108 C 239.109 203.035 239.763 202.215 240.669 201.648 C 241.569 201.075 242.786 200.788 244.319 200.788 C 245.853 200.788 247.066 201.078 247.959 201.658 C 248.853 202.238 249.503 203.061 249.909 204.128 C 250.309 205.188 250.509 206.465 250.509 207.958 L 250.509 216.588 C 250.509 218.061 250.309 219.348 249.909 220.448 C 249.503 221.548 248.853 222.401 247.959 223.008 C 247.066 223.615 245.853 223.918 244.319 223.918 Z M 244.319 221.428 C 245.159 221.428 245.793 221.255 246.219 220.908 C 246.653 220.561 246.943 220.078 247.089 219.458 C 247.243 218.831 247.319 218.098 247.319 217.258 L 247.319 207.318 C 247.319 206.478 247.243 205.755 247.089 205.148 C 246.943 204.541 246.653 204.075 246.219 203.748 C 245.793 203.421 245.159 203.258 244.319 203.258 C 243.479 203.258 242.839 203.421 242.399 203.748 C 241.959 204.075 241.666 204.541 241.519 205.148 C 241.373 205.755 241.299 206.478 241.299 207.318 L 241.299 217.258 C 241.299 218.098 241.373 218.831 241.519 219.458 C 241.666 220.078 241.959 220.561 242.399 220.908 C 242.839 221.255 243.479 221.428 244.319 221.428 ZM 255.151 223.668 L 252.211 223.668 L 256.951 211.798 L 252.301 200.988 L 255.241 200.988 L 258.681 208.998 L 261.821 200.988 L 264.761 200.988 L 260.001 212.048 L 264.981 223.668 L 262.041 223.668 L 258.351 215.128 L 255.151 223.668 Z" transform="matrix(2.314786911010742, 0, 0, 2.158500909805298, -158.58770751953125, -306.9585876464844)" style="fill: rgb(51, 51, 51); white-space: pre;"/>
    <path d="M 177.989 175.881 L 169.029 175.881 L 169.029 153.201 L 172.199 153.201 L 172.199 173.611 L 177.989 173.611 L 177.989 175.881 ZM 181.884 175.881 L 178.914 175.881 L 183.734 153.201 L 186.784 153.201 L 191.624 175.881 L 188.634 175.881 L 187.594 170.171 L 182.974 170.171 L 181.884 175.881 Z M 185.274 157.681 L 183.394 167.901 L 187.174 167.901 L 185.274 157.681 ZM 199.803 175.881 L 196.783 175.881 L 196.783 167.871 L 191.883 153.201 L 194.823 153.201 L 198.293 164.151 L 201.703 153.201 L 204.673 153.201 L 199.803 167.871 L 199.803 175.881 ZM 212.57 176.131 C 211.036 176.131 209.813 175.834 208.9 175.241 C 207.986 174.641 207.333 173.784 206.94 172.671 C 206.546 171.564 206.35 170.264 206.35 168.771 L 206.35 160.171 C 206.35 158.678 206.553 157.394 206.96 156.321 C 207.36 155.248 208.013 154.428 208.92 153.861 C 209.82 153.288 211.036 153.001 212.57 153.001 C 214.103 153.001 215.316 153.291 216.21 153.871 C 217.103 154.451 217.753 155.274 218.16 156.341 C 218.56 157.401 218.76 158.678 218.76 160.171 L 218.76 168.801 C 218.76 170.274 218.56 171.561 218.16 172.661 C 217.753 173.761 217.103 174.614 216.21 175.221 C 215.316 175.828 214.103 176.131 212.57 176.131 Z M 212.57 173.641 C 213.41 173.641 214.043 173.468 214.47 173.121 C 214.903 172.774 215.193 172.291 215.34 171.671 C 215.493 171.044 215.57 170.311 215.57 169.471 L 215.57 159.531 C 215.57 158.691 215.493 157.968 215.34 157.361 C 215.193 156.754 214.903 156.288 214.47 155.961 C 214.043 155.634 213.41 155.471 212.57 155.471 C 211.73 155.471 211.09 155.634 210.65 155.961 C 210.21 156.288 209.916 156.754 209.77 157.361 C 209.623 157.968 209.55 158.691 209.55 159.531 L 209.55 169.471 C 209.55 170.311 209.623 171.044 209.77 171.671 C 209.916 172.291 210.21 172.774 210.65 173.121 C 211.09 173.468 211.73 173.641 212.57 173.641 ZM 227.72 176.131 C 226.074 176.131 224.814 175.804 223.94 175.151 C 223.06 174.498 222.46 173.578 222.14 172.391 C 221.827 171.211 221.67 169.828 221.67 168.241 L 221.67 153.201 L 224.69 153.201 L 224.69 168.381 C 224.69 169.348 224.757 170.234 224.89 171.041 C 225.017 171.841 225.3 172.474 225.74 172.941 C 226.18 173.408 226.84 173.641 227.72 173.641 C 228.614 173.641 229.274 173.408 229.7 172.941 C 230.134 172.474 230.414 171.841 230.54 171.041 C 230.674 170.234 230.74 169.348 230.74 168.381 L 230.74 153.201 L 233.74 153.201 L 233.74 168.241 C 233.74 169.828 233.58 171.211 233.26 172.391 C 232.94 173.578 232.347 174.498 231.48 175.151 C 230.614 175.804 229.36 176.131 227.72 176.131 ZM 242.723 175.881 L 239.563 175.881 L 239.563 155.551 L 235.723 155.551 L 235.723 153.201 L 246.443 153.201 L 246.443 155.551 L 242.723 155.551 L 242.723 175.881 Z" transform="matrix(2.6284780502319336, 0, 0, 2.162729024887085, -192.86444091796875, -137.90968322753906)" style="fill: rgb(51, 51, 51); white-space: pre;"/>
  </g>
  <g style="" transform="matrix(1, 0, 0, 1, -4.539303, 1.852043)">
    <rect style="stroke: rgb(27, 179, 222); stroke-opacity: 0.6; fill: rgb(27, 179, 222); fill-opacity: 0.2; stroke-width: 9px;" x="48.545" y="219.768" width="410.962" height="56.463" rx="10" ry="10"/>
    <g>
      <circle style="fill: rgb(238, 154, 0);" cx="70.913" cy="248" r="10.279"/>
      <line style="fill: rgb(238, 154, 0); stroke: rgb(238, 154, 0); stroke-width: 5px; stroke-linecap: round;" x1="90.634" y1="248" x2="242.634" y2="248"/>
    </g>
    <g transform="matrix(1, 0, 0, 1, 203.365997, 0)">
      <circle style="fill: rgb(238, 154, 0);" cx="70.913" cy="248" r="10.279"/>
      <line style="fill: rgb(238, 154, 0); stroke: rgb(238, 154, 0); stroke-width: 5px; stroke-linecap: round;" x1="90.634" y1="248" x2="242.634" y2="248"/>
    </g>
  </g>
  <g transform="matrix(1, 0, 0, 1, -4.539303, 16)">
    <rect style="stroke: rgb(27, 179, 222); stroke-opacity: 0.6; fill: rgb(27, 179, 222); fill-opacity: 0.2; stroke-width: 9px;" x="48.545" y="288" width="410.962" height="128" rx="10" ry="10"/>
    <g transform="matrix(1, 0, 0, 1, 200, 0)">
      <rect style="stroke: rgb(27, 179, 222); stroke-opacity: 0.6; fill: rgb(27, 179, 222); fill-opacity: 0.2; stroke-width: 9px;" x="64" y="304" width="180.634" height="40" rx="10" ry="10"/>
      <g transform="matrix(1, 0, 0, 1, 3.366005, -1.721009)">
        <circle style="fill: rgb(238, 154, 0);" cx="85.547" cy="325.721" r="10.279"/>
        <line style="fill: rgb(238, 154, 0); stroke: rgb(238, 154, 0); stroke-width: 5px; stroke-linecap: round;" x1="105.268" y1="325.721" x2="220.634" y2="325.721"/>
      </g>
    </g>
    <g transform="matrix(1, 0, 0, 1, 200, 56)">
      <rect style="stroke: rgb(27, 179, 222); stroke-opacity: 0.6; fill: rgb(27, 179, 222); fill-opacity: 0.2; stroke-width: 9px;" x="64" y="304" width="180.634" height="40" rx="10" ry="10"/>
      <g transform="matrix(1, 0, 0, 1, 3.366005, -1.721009)">
        <circle style="fill: rgb(238, 154, 0);" cx="85.547" cy="325.721" r="10.279"/>
        <line style="fill: rgb(238, 154, 0); stroke: rgb(238, 154, 0); stroke-width: 5px; stroke-linecap: round;" x1="105.268" y1="325.721" x2="220.634" y2="325.721"/>
      </g>
    </g>
    <g>
      <rect style="stroke: rgb(27, 179, 222); stroke-opacity: 0.6; fill: rgb(27, 179, 222); fill-opacity: 0.2; stroke-width: 9px;" x="64" y="304" width="180.634" height="96" rx="10" ry="10"/>
      <g transform="matrix(1, 0, 0, 1, 3.366005, -1.721009)">
        <circle style="fill: rgb(238, 154, 0);" cx="85.547" cy="325.721" r="10.279"/>
        <line style="fill: rgb(238, 154, 0); stroke: rgb(238, 154, 0); stroke-width: 5px; stroke-linecap: round;" x1="105.268" y1="325.721" x2="220.634" y2="325.721"/>
      </g>
      <g transform="matrix(1, 0, 0, 1, 3.366005, 54.557983)">
        <circle style="fill: rgb(238, 154, 0);" cx="85.547" cy="325.721" r="10.279"/>
        <line style="fill: rgb(238, 154, 0); stroke: rgb(238, 154, 0); stroke-width: 5px; stroke-linecap: round;" x1="105.268" y1="325.721" x2="220.634" y2="325.721"/>
      </g>
      <g transform="matrix(1, 0, 0, 1, 3.366005, 26.418488)">
        <circle style="fill: rgb(238, 154, 0);" cx="85.547" cy="325.721" r="10.279"/>
        <line style="fill: rgb(238, 154, 0); stroke: rgb(238, 154, 0); stroke-width: 5px; stroke-linecap: round;" x1="105.268" y1="325.721" x2="220.634" y2="325.721"/>
      </g>
    </g>
  </g>
</svg>